<svg width="330" height="119" viewBox="0 0 330 119" fill="none" xmlns="http://www.w3.org/2000/svg">
<path d="M62.6421 1H318.5C324.023 1 328.5 5.47715 328.5 11V108C328.5 113.523 324.023 118 318.5 118H62.6421C59.99 118 57.4464 116.946 55.5711 115.071L7.07107 66.5711C3.16583 62.6658 3.16583 56.3342 7.07107 52.4289L55.5711 3.92893C57.4464 2.05357 59.99 1 62.6421 1Z" stroke="#14FF00" stroke-width="2"/>
<path d="M97.8 97.5C94.0667 97.5 90.7333 96.5667 87.8 94.7C84.8667 92.8333 82.5333 90.0667 80.8 86.4C79.1333 82.6667 78.3 78.1333 78.3 72.8C78.3 56.4 84.6 48.2 97.2 48.2C101.733 48.2 106.033 49.1667 110.1 51.1V63.7L105.1 64.2V54.4C103.1 53.6 100.433 53.2 97.1 53.2C92.5 53.2 89.2333 54.9 87.3 58.3C85.4333 61.7 84.5 66.5667 84.5 72.9C84.5 79.1 85.7333 83.9 88.2 87.3C90.7333 90.7 94.1333 92.4 98.4 92.4C102.267 92.4 106 91.1667 109.6 88.7L112 93.1C109.8 94.7 107.533 95.8333 105.2 96.5C102.933 97.1667 100.467 97.5 97.8 97.5ZM135.988 97.5C131.321 97.5 127.554 96.3333 124.688 94C121.888 91.6667 120.488 88.3 120.488 83.9C120.488 79.6333 122.354 76.1333 126.088 73.4C129.821 70.6667 135.921 69.3 144.388 69.3H148.588V67.8C148.588 62.4667 147.654 58.7333 145.788 56.6C143.988 54.4 141.421 53.3 138.088 53.3C136.288 53.3 134.488 53.5 132.688 53.9C130.888 54.2333 128.154 54.8667 124.488 55.8L123.288 51C128.888 49.1333 133.888 48.2 138.288 48.2C143.354 48.2 147.354 49.7 150.288 52.7C153.288 55.6333 154.788 60.3667 154.788 66.9V97H150.288L149.288 93.8C148.088 94.7333 146.188 95.6 143.588 96.4C140.988 97.1333 138.454 97.5 135.988 97.5ZM136.888 92.5C138.954 92.5 141.088 92.2 143.288 91.6C145.488 90.9333 147.254 90.1667 148.588 89.3V73.9H145.888C140.354 73.9 135.721 74.5333 131.988 75.8C128.254 77.0667 126.388 79.6 126.388 83.4C126.388 86.4 127.288 88.6667 129.088 90.2C130.888 91.7333 133.488 92.5 136.888 92.5ZM168.472 48.9H173.672L174.072 52C177.272 50.5333 179.939 49.5333 182.072 49C184.205 48.4667 186.505 48.2 188.972 48.2C193.972 48.2 197.639 49.5333 199.972 52.2C202.305 54.8667 203.472 59 203.472 64.6V97H197.272V64.4C197.272 60.4667 196.639 57.6333 195.372 55.9C194.105 54.1667 191.872 53.3 188.672 53.3C186.339 53.3 184.072 53.5333 181.872 54C179.739 54.4667 177.372 55.4333 174.772 56.9V97H168.472V48.9ZM233.816 97.5C227.483 97.5 222.783 95.3667 219.716 91.1C216.65 86.7667 215.116 80.6667 215.116 72.8C215.116 64.6 216.616 58.4667 219.616 54.4C222.616 50.2667 227.35 48.2 233.816 48.2C240.283 48.2 245.016 50.2667 248.016 54.4C251.083 58.4667 252.616 64.6 252.616 72.8C252.616 80.6667 251.083 86.7667 248.016 91.1C244.95 95.3667 240.216 97.5 233.816 97.5ZM233.816 92.3C238.416 92.3 241.65 90.6333 243.516 87.3C245.383 83.9667 246.316 79.1333 246.316 72.8C246.316 66.6 245.35 61.8 243.416 58.4C241.55 55 238.35 53.3 233.816 53.3C229.283 53.3 226.05 55 224.116 58.4C222.25 61.8 221.316 66.6 221.316 72.8C221.316 79.1333 222.25 83.9667 224.116 87.3C225.983 90.6333 229.216 92.3 233.816 92.3ZM264.663 48.9H269.863L270.263 52C273.463 50.5333 276.13 49.5333 278.263 49C280.397 48.4667 282.697 48.2 285.163 48.2C290.163 48.2 293.83 49.5333 296.163 52.2C298.497 54.8667 299.663 59 299.663 64.6V97H293.463V64.4C293.463 60.4667 292.83 57.6333 291.563 55.9C290.297 54.1667 288.063 53.3 284.863 53.3C282.53 53.3 280.263 53.5333 278.063 54C275.93 54.4667 273.563 55.4333 270.963 56.9V97H264.663V48.9Z" fill="#14FF00"/>
</svg>
