<svg width="555" height="119" viewBox="0 0 555 119" fill="none" xmlns="http://www.w3.org/2000/svg">
<path d="M62.6421 1H543.5C549.023 1 553.5 5.47715 553.5 11V108C553.5 113.523 549.023 118 543.5 118H62.6421C59.99 118 57.4464 116.946 55.5711 115.071L7.07107 66.5711C3.16583 62.6658 3.16583 56.3342 7.07107 52.4289L55.5711 3.92893C57.4464 2.05357 59.99 1 62.6421 1Z" stroke="#0085FF" stroke-width="2"/>
<path d="M106.8 97.5C103.067 97.5 99.7333 96.5667 96.8 94.7C93.8667 92.8333 91.5333 90.0667 89.8 86.4C88.1333 82.6667 87.3 78.1333 87.3 72.8C87.3 56.4 93.6 48.2 106.2 48.2C110.733 48.2 115.033 49.1667 119.1 51.1V63.7L114.1 64.2V54.4C112.1 53.6 109.433 53.2 106.1 53.2C101.5 53.2 98.2333 54.9 96.3 58.3C94.4333 61.7 93.5 66.5667 93.5 72.9C93.5 79.1 94.7333 83.9 97.2 87.3C99.7333 90.7 103.133 92.4 107.4 92.4C111.267 92.4 115 91.1667 118.6 88.7L121 93.1C118.8 94.7 116.533 95.8333 114.2 96.5C111.933 97.1667 109.467 97.5 106.8 97.5ZM148.188 97.5C141.854 97.5 137.154 95.3667 134.088 91.1C131.021 86.7667 129.488 80.6667 129.488 72.8C129.488 64.6 130.988 58.4667 133.988 54.4C136.988 50.2667 141.721 48.2 148.188 48.2C154.654 48.2 159.388 50.2667 162.388 54.4C165.454 58.4667 166.988 64.6 166.988 72.8C166.988 80.6667 165.454 86.7667 162.388 91.1C159.321 95.3667 154.588 97.5 148.188 97.5ZM148.188 92.3C152.788 92.3 156.021 90.6333 157.888 87.3C159.754 83.9667 160.688 79.1333 160.688 72.8C160.688 66.6 159.721 61.8 157.788 58.4C155.921 55 152.721 53.3 148.188 53.3C143.654 53.3 140.421 55 138.488 58.4C136.621 61.8 135.688 66.6 135.688 72.8C135.688 79.1333 136.621 83.9667 138.488 87.3C140.354 90.6333 143.588 92.3 148.188 92.3ZM179.034 48.9H184.834L185.034 52C189.568 49.4667 194.401 48.2 199.534 48.2C204.601 48.2 208.034 49.5333 209.834 52.2C214.834 49.5333 219.868 48.2 224.934 48.2C229.534 48.2 233.068 49.5333 235.534 52.2C238.001 54.8667 239.234 58.8667 239.234 64.2V97H233.034V64.2C233.034 56.9333 230.401 53.3 225.134 53.3C219.801 53.3 215.468 54.3667 212.134 56.5C212.268 57.1667 212.401 58.3667 212.534 60.1C212.668 61.7667 212.734 63.2667 212.734 64.6V97H206.434V64.4C206.434 60.4667 205.868 57.6333 204.734 55.9C203.601 54.1667 201.601 53.2667 198.734 53.2H198.634C196.901 53.2 194.801 53.5 192.334 54.1C189.934 54.7 187.601 55.6 185.334 56.8V97H179.034V48.9ZM252.374 48.9H258.174L258.374 52C262.908 49.4667 267.741 48.2 272.874 48.2C277.941 48.2 281.374 49.5333 283.174 52.2C288.174 49.5333 293.208 48.2 298.274 48.2C302.874 48.2 306.408 49.5333 308.874 52.2C311.341 54.8667 312.574 58.8667 312.574 64.2V97H306.374V64.2C306.374 56.9333 303.741 53.3 298.474 53.3C293.141 53.3 288.808 54.3667 285.474 56.5C285.608 57.1667 285.741 58.3667 285.874 60.1C286.008 61.7667 286.074 63.2667 286.074 64.6V97H279.774V64.4C279.774 60.4667 279.208 57.6333 278.074 55.9C276.941 54.1667 274.941 53.2667 272.074 53.2H271.974C270.241 53.2 268.141 53.5 265.674 54.1C263.274 54.7 260.941 55.6 258.674 56.8V97H252.374V48.9ZM339.514 97.5C334.581 97.5 330.947 96.2 328.614 93.6C326.347 91 325.214 86.9 325.214 81.3V48.9H331.414V81.6C331.414 85.4667 332.047 88.2333 333.314 89.9C334.581 91.5 336.847 92.3 340.114 92.3C342.714 92.3 345.014 92.1333 347.014 91.8C349.081 91.4 351.381 90.4667 353.914 89V48.9H360.214V97H355.014L354.614 93.9C351.547 95.3667 348.914 96.3333 346.714 96.8C344.514 97.2667 342.114 97.5 339.514 97.5ZM373.859 48.9H379.059L379.459 52C382.659 50.5333 385.325 49.5333 387.459 49C389.592 48.4667 391.892 48.2 394.359 48.2C399.359 48.2 403.025 49.5333 405.359 52.2C407.692 54.8667 408.859 59 408.859 64.6V97H402.659V64.4C402.659 60.4667 402.025 57.6333 400.759 55.9C399.492 54.1667 397.259 53.3 394.059 53.3C391.725 53.3 389.459 53.5333 387.259 54C385.125 54.4667 382.759 55.4333 380.159 56.9V97H373.859V48.9ZM433.503 39.6C432.236 39.6 431.17 39.2333 430.303 38.5C429.436 37.7 429.003 36.6333 429.003 35.3C429.003 33.9667 429.436 32.9 430.303 32.1C431.17 31.2333 432.236 30.8 433.503 30.8C434.77 30.8 435.803 31.2 436.603 32C437.47 32.7333 437.903 33.8 437.903 35.2C437.903 36.6 437.47 37.7 436.603 38.5C435.803 39.2333 434.77 39.6 433.503 39.6ZM421.003 97V92.6H430.303V53.3H421.003V48.9H436.603V92.6H446.003V97H421.003ZM471.406 97.5C468.006 97.4333 465.373 96.7 463.506 95.3C461.64 93.9 460.34 91.8333 459.606 89.1C458.94 86.3667 458.606 82.7 458.606 78.1V53.3H451.106V48.9H458.806L460.006 35.1H464.906V48.9H479.906V53.3H464.906V78.2C464.906 82.3333 465.206 85.4 465.806 87.4C466.473 89.4 467.34 90.7333 468.406 91.4C469.54 92 471.106 92.3 473.106 92.3C476.706 92.3 479.14 92.2 480.406 92L480.706 97C478.106 97.3333 475.006 97.5 471.406 97.5ZM498.537 116C495.937 116 493.27 115.433 490.537 114.3L491.437 109.4L491.537 109.3C494.337 110.167 496.537 110.6 498.137 110.6C499.87 110.6 501.203 109.867 502.137 108.4C503.07 106.933 503.837 105.267 504.437 103.4C505.037 101.533 505.437 100.3 505.637 99.7L506.937 95.7L487.137 48.9H493.837L509.637 88.9L522.637 48.9H529.237L512.337 97.8C510.737 102.4 509.37 105.9 508.237 108.3C507.17 110.7 505.87 112.567 504.337 113.9C502.803 115.3 500.87 116 498.537 116Z" fill="#0085FF"/>
</svg>
