<svg width="255" height="122" viewBox="0 0 255 122" fill="none" xmlns="http://www.w3.org/2000/svg">
<path d="M63.1421 2H243.5C249.023 2 253.5 6.47715 253.5 12V109C253.5 114.523 249.023 119 243.5 119H63.1421C60.49 119 57.9464 117.946 56.0711 116.071L7.57107 67.5711C3.66583 63.6658 3.66583 57.3342 7.57107 53.4289L56.0711 4.92893C57.9464 3.05357 60.49 2 63.1421 2Z" stroke="#24AD8C" stroke-width="2"/>
<path d="M85.4 52.4H76V47.9H85.4C85.4 42.9667 85.7333 39.1333 86.4 36.4C87.0667 33.6 88.3 31.5333 90.1 30.2C91.9 28.8 94.5333 28.0333 98 27.9C101.467 27.9 104.5 28.3333 107.1 29.2L106.3 34.1C105.433 33.9 104.267 33.7 102.8 33.5C101.4 33.2333 100.267 33.1 99.4 33.1C97.4 33.1 95.8667 33.4667 94.8 34.2C93.7333 34.8667 92.9333 36.2667 92.4 38.4C91.9333 40.4667 91.7 43.6333 91.7 47.9H102.6V52.4H91.7V96H85.4V52.4ZM127.296 96.5C122.629 96.5 118.863 95.3333 115.996 93C113.196 90.6667 111.796 87.3 111.796 82.9C111.796 78.6333 113.663 75.1333 117.396 72.4C121.129 69.6667 127.229 68.3 135.696 68.3H139.896V66.8C139.896 61.4667 138.963 57.7333 137.096 55.6C135.296 53.4 132.729 52.3 129.396 52.3C127.596 52.3 125.796 52.5 123.996 52.9C122.196 53.2333 119.463 53.8667 115.796 54.8L114.596 50C120.196 48.1333 125.196 47.2 129.596 47.2C134.663 47.2 138.663 48.7 141.596 51.7C144.596 54.6333 146.096 59.3667 146.096 65.9V96H141.596L140.596 92.8C139.396 93.7333 137.496 94.6 134.896 95.4C132.296 96.1333 129.763 96.5 127.296 96.5ZM128.196 91.5C130.263 91.5 132.396 91.2 134.596 90.6C136.796 89.9333 138.563 89.1667 139.896 88.3V72.9H137.196C131.663 72.9 127.029 73.5333 123.296 74.8C119.563 76.0667 117.696 78.6 117.696 82.4C117.696 85.4 118.596 87.6667 120.396 89.2C122.196 90.7333 124.796 91.5 128.196 91.5ZM177.78 96.5C174.047 96.5 170.714 95.5667 167.78 93.7C164.847 91.8333 162.514 89.0667 160.78 85.4C159.114 81.6667 158.28 77.1333 158.28 71.8C158.28 55.4 164.58 47.2 177.18 47.2C181.714 47.2 186.014 48.1667 190.08 50.1V62.7L185.08 63.2V53.4C183.08 52.6 180.414 52.2 177.08 52.2C172.48 52.2 169.214 53.9 167.28 57.3C165.414 60.7 164.48 65.5667 164.48 71.9C164.48 78.1 165.714 82.9 168.18 86.3C170.714 89.7 174.114 91.4 178.38 91.4C182.247 91.4 185.98 90.1667 189.58 87.7L191.98 92.1C189.78 93.7 187.514 94.8333 185.18 95.5C182.914 96.1667 180.447 96.5 177.78 96.5ZM218.168 96.5C214.768 96.4333 212.135 95.7 210.268 94.3C208.401 92.9 207.101 90.8333 206.368 88.1C205.701 85.3667 205.368 81.7 205.368 77.1V52.3H197.868V47.9H205.568L206.768 34.1H211.668V47.9H226.668V52.3H211.668V77.2C211.668 81.3333 211.968 84.4 212.568 86.4C213.235 88.4 214.101 89.7333 215.168 90.4C216.301 91 217.868 91.3 219.868 91.3C223.468 91.3 225.901 91.2 227.168 91L227.468 96C224.868 96.3333 221.768 96.5 218.168 96.5Z" fill="#24AD8C"/>
</svg>
