<svg width="358" height="122" viewBox="0 0 358 122" fill="none" xmlns="http://www.w3.org/2000/svg">
<path d="M62.6422 2H346.5C352.023 2 356.5 6.47715 356.5 12V109C356.5 114.523 352.023 119 346.5 119H62.6421C59.99 119 57.4464 117.946 55.5711 116.071L7.07107 67.5711C3.16583 63.6658 3.16583 57.3342 7.07107 53.4289L55.5711 4.92893C57.4464 3.05357 59.99 2 62.6422 2Z" stroke="#9B9B9B" stroke-width="2"/>
<path d="M69.4 96V91.6H80.3V34.1H69.5V29.7H86.6V91.6H96.9V96H69.4ZM125.301 96.5C111.501 96.5 104.601 88.2667 104.601 71.8C104.601 63.6 106.367 57.4667 109.901 53.4C113.434 49.2667 118.167 47.2 124.101 47.2C129.434 47.2 133.634 48.9667 136.701 52.5C139.834 55.9667 141.401 60.6333 141.401 66.5L141.201 71L141.001 73.1H110.801C110.867 79.9667 112.201 84.7333 114.801 87.4C117.401 90 120.767 91.3 124.901 91.3C127.434 91.3 129.801 91 132.001 90.4C134.201 89.8 136.401 88.8 138.601 87.4L140.501 92.3C138.234 93.7 135.734 94.7667 133.001 95.5C130.334 96.1667 127.767 96.5 125.301 96.5ZM135.601 68.7V66.3C135.601 62.0333 134.567 58.6333 132.501 56.1C130.434 53.5667 127.634 52.3 124.101 52.3C120.034 52.3 116.901 53.7333 114.701 56.6C112.501 59.4667 111.201 63.5 110.801 68.7H135.601ZM171.471 112.6C164.271 112.6 159.238 111.333 156.371 108.8C153.571 106.333 152.171 103.567 152.171 100.5C152.171 98.7 152.771 96.9 153.971 95.1C155.171 93.2333 156.371 91.9667 157.571 91.3C156.504 90.5667 155.638 89.5667 154.971 88.3C154.371 86.9667 154.071 85.6667 154.071 84.4C154.071 82.6667 154.438 81.0667 155.171 79.6C155.904 78.0667 157.204 75.9667 159.071 73.3C155.471 70.1667 153.671 66.5333 153.671 62.4C153.671 57.2667 155.438 53.4667 158.971 51C162.504 48.4667 167.071 47.2 172.671 47.2C174.204 47.2 175.971 47.4 177.971 47.8C178.304 47.8667 178.904 47.9667 179.771 48.1C180.704 48.2333 181.638 48.3 182.571 48.3H196.571V52.9H185.771C187.438 54.1667 188.704 55.7333 189.571 57.6C190.504 59.4667 190.971 61.3 190.971 63.1C190.971 67.5 189.304 71.0333 185.971 73.7C182.704 76.3 178.371 77.6 172.971 77.6C169.171 77.6 165.804 77 162.871 75.8C160.738 79.1333 159.671 81.7333 159.671 83.6C159.671 84.4 159.771 85.1333 159.971 85.8C160.238 86.4 160.471 86.9 160.671 87.3C160.938 87.6333 161.104 87.8333 161.171 87.9H179.671C184.804 87.9 188.371 88.7333 190.371 90.4C192.438 92 193.471 94.5333 193.471 98C193.471 100.333 192.771 102.6 191.371 104.8C190.038 107 187.738 108.833 184.471 110.3C181.204 111.833 176.871 112.6 171.471 112.6ZM172.471 72.8C176.671 72.8 179.838 71.9667 181.971 70.3C184.171 68.6333 185.271 66.1667 185.271 62.9C185.271 59.7 184.238 57.0667 182.171 55C180.104 52.8667 177.038 51.8 172.971 51.8C168.438 51.8 165.138 52.7667 163.071 54.7C161.004 56.6333 159.971 59.2 159.971 62.4C159.971 65.7333 161.071 68.3 163.271 70.1C165.471 71.9 168.538 72.8 172.471 72.8ZM171.771 107.5C177.038 107.5 181.004 106.6 183.671 104.8C186.338 103 187.671 100.867 187.671 98.4C187.671 96.5333 187.171 95.1333 186.171 94.2C185.238 93.2667 183.338 92.8 180.471 92.8H161.971C159.571 95.0667 158.371 97.4333 158.371 99.9C158.371 101.3 158.638 102.533 159.171 103.6C159.704 104.667 160.938 105.567 162.871 106.3C164.871 107.1 167.838 107.5 171.771 107.5ZM220.491 96.5C215.825 96.5 212.058 95.3333 209.191 93C206.391 90.6667 204.991 87.3 204.991 82.9C204.991 78.6333 206.858 75.1333 210.591 72.4C214.325 69.6667 220.425 68.3 228.891 68.3H233.091V66.8C233.091 61.4667 232.158 57.7333 230.291 55.6C228.491 53.4 225.925 52.3 222.591 52.3C220.791 52.3 218.991 52.5 217.191 52.9C215.391 53.2333 212.658 53.8667 208.991 54.8L207.791 50C213.391 48.1333 218.391 47.2 222.791 47.2C227.858 47.2 231.858 48.7 234.791 51.7C237.791 54.6333 239.291 59.3667 239.291 65.9V96H234.791L233.791 92.8C232.591 93.7333 230.691 94.6 228.091 95.4C225.491 96.1333 222.958 96.5 220.491 96.5ZM221.391 91.5C223.458 91.5 225.591 91.2 227.791 90.6C229.991 89.9333 231.758 89.1667 233.091 88.3V72.9H230.391C224.858 72.9 220.225 73.5333 216.491 74.8C212.758 76.0667 210.891 78.6 210.891 82.4C210.891 85.4 211.791 87.6667 213.591 89.2C215.391 90.7333 217.991 91.5 221.391 91.5ZM270.976 96.5C267.242 96.5 263.909 95.5667 260.976 93.7C258.042 91.8333 255.709 89.0667 253.976 85.4C252.309 81.6667 251.476 77.1333 251.476 71.8C251.476 55.4 257.776 47.2 270.376 47.2C274.909 47.2 279.209 48.1667 283.276 50.1V62.7L278.276 63.2V53.4C276.276 52.6 273.609 52.2 270.276 52.2C265.676 52.2 262.409 53.9 260.476 57.3C258.609 60.7 257.676 65.5667 257.676 71.9C257.676 78.1 258.909 82.9 261.376 86.3C263.909 89.7 267.309 91.4 271.576 91.4C275.442 91.4 279.176 90.1667 282.776 87.7L285.176 92.1C282.976 93.7 280.709 94.8333 278.376 95.5C276.109 96.1667 273.642 96.5 270.976 96.5ZM302.263 115C299.663 115 296.997 114.433 294.263 113.3L295.163 108.4L295.263 108.3C298.063 109.167 300.263 109.6 301.863 109.6C303.597 109.6 304.93 108.867 305.863 107.4C306.797 105.933 307.563 104.267 308.163 102.4C308.763 100.533 309.163 99.3 309.363 98.7L310.663 94.7L290.863 47.9H297.563L313.363 87.9L326.363 47.9H332.963L316.063 96.8C314.463 101.4 313.097 104.9 311.963 107.3C310.897 109.7 309.597 111.567 308.063 112.9C306.53 114.3 304.597 115 302.263 115Z" fill="#9B9B9B"/>
</svg>
