<svg width="262" height="119" viewBox="0 0 262 119" fill="none" xmlns="http://www.w3.org/2000/svg">
<path d="M62.6421 1H251C256.523 1 261 5.47715 261 11V108C261 113.523 256.523 118 251 118H62.6421C59.99 118 57.4464 116.946 55.5711 115.071L7.07107 66.5711C3.16583 62.6658 3.16583 56.3342 7.07107 52.4289L55.5711 3.92893C57.4464 2.05357 59.99 1 62.6421 1Z" stroke="#FF9900" stroke-width="2"/>
<path d="M80.4 97V92.6H91.3V35.1H80.5V30.7H97.6V92.6H107.9V97H80.4ZM134.301 97.5C127.967 97.5 123.267 95.3667 120.201 91.1C117.134 86.7667 115.601 80.6667 115.601 72.8C115.601 64.6 117.101 58.4667 120.101 54.4C123.101 50.2667 127.834 48.2 134.301 48.2C140.767 48.2 145.501 50.2667 148.501 54.4C151.567 58.4667 153.101 64.6 153.101 72.8C153.101 80.6667 151.567 86.7667 148.501 91.1C145.434 95.3667 140.701 97.5 134.301 97.5ZM134.301 92.3C138.901 92.3 142.134 90.6333 144.001 87.3C145.867 83.9667 146.801 79.1333 146.801 72.8C146.801 66.6 145.834 61.8 143.901 58.4C142.034 55 138.834 53.3 134.301 53.3C129.767 53.3 126.534 55 124.601 58.4C122.734 61.8 121.801 66.6 121.801 72.8C121.801 79.1333 122.734 83.9667 124.601 87.3C126.467 90.6333 129.701 92.3 134.301 92.3ZM165.448 48.9H171.448L171.648 53.1C173.514 51.8333 175.914 50.7333 178.848 49.8C181.848 48.8667 184.614 48.3333 187.148 48.2V53.4C184.281 53.4 181.381 53.8333 178.448 54.7C175.581 55.5667 173.348 56.5667 171.748 57.7V97H165.448V48.9ZM216.184 97.5C202.384 97.5 195.484 89.2667 195.484 72.8C195.484 64.6 197.25 58.4667 200.784 54.4C204.317 50.2667 209.05 48.2 214.984 48.2C220.317 48.2 224.517 49.9667 227.584 53.5C230.717 56.9667 232.284 61.6333 232.284 67.5L232.084 72L231.884 74.1H201.684C201.75 80.9667 203.084 85.7333 205.684 88.4C208.284 91 211.65 92.3 215.784 92.3C218.317 92.3 220.684 92 222.884 91.4C225.084 90.8 227.284 89.8 229.484 88.4L231.384 93.3C229.117 94.7 226.617 95.7667 223.884 96.5C221.217 97.1667 218.65 97.5 216.184 97.5ZM226.484 69.7V67.3C226.484 63.0333 225.45 59.6333 223.384 57.1C221.317 54.5667 218.517 53.3 214.984 53.3C210.917 53.3 207.784 54.7333 205.584 57.6C203.384 60.4667 202.084 64.5 201.684 69.7H226.484Z" fill="#FF9900"/>
</svg>
