<svg width="651" height="119" viewBox="0 0 651 119" fill="none" xmlns="http://www.w3.org/2000/svg">
<path d="M62.6422 1H639.5C645.023 1 649.5 5.47715 649.5 11V108C649.5 113.523 645.023 118 639.5 118H62.6421C59.99 118 57.4464 116.946 55.5711 115.071L7.07107 66.5711C3.16583 62.6658 3.16583 56.3342 7.07107 52.4289L55.5711 3.92893C57.4464 2.05357 59.99 1 62.6422 1Z" stroke="#E1FF28" stroke-width="2"/>
<path d="M89.4 97V92.6H100.3V35.1H89.5V30.7H106.6V92.6H116.9V97H89.4ZM143.301 97.5C136.967 97.5 132.267 95.3667 129.201 91.1C126.134 86.7667 124.601 80.6667 124.601 72.8C124.601 64.6 126.101 58.4667 129.101 54.4C132.101 50.2667 136.834 48.2 143.301 48.2C149.767 48.2 154.501 50.2667 157.501 54.4C160.567 58.4667 162.101 64.6 162.101 72.8C162.101 80.6667 160.567 86.7667 157.501 91.1C154.434 95.3667 149.701 97.5 143.301 97.5ZM143.301 92.3C147.901 92.3 151.134 90.6333 153.001 87.3C154.867 83.9667 155.801 79.1333 155.801 72.8C155.801 66.6 154.834 61.8 152.901 58.4C151.034 55 147.834 53.3 143.301 53.3C138.767 53.3 135.534 55 133.601 58.4C131.734 61.8 130.801 66.6 130.801 72.8C130.801 79.1333 131.734 83.9667 133.601 87.3C135.467 90.6333 138.701 92.3 143.301 92.3ZM182.148 97L170.548 48.9H176.648L185.948 91.5L196.548 59.7H202.348L212.748 91.5L221.448 48.9H227.548L216.648 97H209.748L199.448 66.4L189.148 97H182.148ZM236.327 75.1V69.4H261.627V75.1H236.327ZM293.348 97.5C279.548 97.5 272.648 89.2667 272.648 72.8C272.648 64.6 274.414 58.4667 277.948 54.4C281.481 50.2667 286.214 48.2 292.148 48.2C297.481 48.2 301.681 49.9667 304.748 53.5C307.881 56.9667 309.448 61.6333 309.448 67.5L309.248 72L309.048 74.1H278.848C278.914 80.9667 280.248 85.7333 282.848 88.4C285.448 91 288.814 92.3 292.948 92.3C295.481 92.3 297.848 92 300.048 91.4C302.248 90.8 304.448 89.8 306.648 88.4L308.548 93.3C306.281 94.7 303.781 95.7667 301.048 96.5C298.381 97.1667 295.814 97.5 293.348 97.5ZM303.648 69.7V67.3C303.648 63.0333 302.614 59.6333 300.548 57.1C298.481 54.5667 295.681 53.3 292.148 53.3C288.081 53.3 284.948 54.7333 282.748 57.6C280.548 60.4667 279.248 64.5 278.848 69.7H303.648ZM333.618 97L317.618 48.9H323.918L337.018 90.3L349.418 48.9H355.818L340.318 97H333.618ZM377.249 39.6C375.983 39.6 374.916 39.2333 374.049 38.5C373.183 37.7 372.749 36.6333 372.749 35.3C372.749 33.9667 373.183 32.9 374.049 32.1C374.916 31.2333 375.983 30.8 377.249 30.8C378.516 30.8 379.549 31.2 380.349 32C381.216 32.7333 381.649 33.8 381.649 35.2C381.649 36.6 381.216 37.7 380.349 38.5C379.549 39.2333 378.516 39.6 377.249 39.6ZM364.749 97V92.6H374.049V53.3H364.749V48.9H380.349V92.6H389.749V97H364.749ZM417.252 97.5C411.052 97.5 406.186 95.5333 402.652 91.6C399.186 87.6667 397.452 81.4333 397.452 72.9C397.452 67.3 398.252 62.6667 399.852 59C401.519 55.2667 403.719 52.5333 406.452 50.8C409.252 49.0667 412.352 48.2 415.752 48.2C417.952 48.2 420.019 48.4667 421.952 49C423.886 49.5333 426.019 50.5 428.352 51.9V30.7H434.652V97H429.552L429.052 94.6C425.386 96.5333 421.452 97.5 417.252 97.5ZM419.452 92.3C421.052 92.3 422.486 92.2 423.752 92C425.019 91.7333 426.552 91.1667 428.352 90.3V57.5C425.752 55.9667 423.552 54.9 421.752 54.3C419.952 53.6333 418.219 53.3 416.552 53.3C412.552 53.3 409.386 54.9667 407.052 58.3C404.786 61.5667 403.652 66.4667 403.652 73C403.652 85.8667 408.486 92.3 418.152 92.3H419.452ZM467.469 97.5C453.669 97.5 446.769 89.2667 446.769 72.8C446.769 64.6 448.535 58.4667 452.069 54.4C455.602 50.2667 460.335 48.2 466.269 48.2C471.602 48.2 475.802 49.9667 478.869 53.5C482.002 56.9667 483.569 61.6333 483.569 67.5L483.369 72L483.169 74.1H452.969C453.035 80.9667 454.369 85.7333 456.969 88.4C459.569 91 462.935 92.3 467.069 92.3C469.602 92.3 471.969 92 474.169 91.4C476.369 90.8 478.569 89.8 480.769 88.4L482.669 93.3C480.402 94.7 477.902 95.7667 475.169 96.5C472.502 97.1667 469.935 97.5 467.469 97.5ZM477.769 69.7V67.3C477.769 63.0333 476.735 59.6333 474.669 57.1C472.602 54.5667 469.802 53.3 466.269 53.3C462.202 53.3 459.069 54.7333 456.869 57.6C454.669 60.4667 453.369 64.5 452.969 69.7H477.769ZM495.339 48.9H500.539L500.939 52C504.139 50.5333 506.806 49.5333 508.939 49C511.072 48.4667 513.372 48.2 515.839 48.2C520.839 48.2 524.506 49.5333 526.839 52.2C529.172 54.8667 530.339 59 530.339 64.6V97H524.139V64.4C524.139 60.4667 523.506 57.6333 522.239 55.9C520.972 54.1667 518.739 53.3 515.539 53.3C513.206 53.3 510.939 53.5333 508.739 54C506.606 54.4667 504.239 55.4333 501.639 56.9V97H495.339V48.9ZM561.484 97.5C557.75 97.5 554.417 96.5667 551.484 94.7C548.55 92.8333 546.217 90.0667 544.484 86.4C542.817 82.6667 541.984 78.1333 541.984 72.8C541.984 56.4 548.284 48.2 560.884 48.2C565.417 48.2 569.717 49.1667 573.784 51.1V63.7L568.784 64.2V54.4C566.784 53.6 564.117 53.2 560.784 53.2C556.184 53.2 552.917 54.9 550.984 58.3C549.117 61.7 548.184 66.5667 548.184 72.9C548.184 79.1 549.417 83.9 551.884 87.3C554.417 90.7 557.817 92.4 562.084 92.4C565.95 92.4 569.684 91.1667 573.284 88.7L575.684 93.1C573.484 94.7 571.217 95.8333 568.884 96.5C566.617 97.1667 564.15 97.5 561.484 97.5ZM604.871 97.5C591.071 97.5 584.171 89.2667 584.171 72.8C584.171 64.6 585.938 58.4667 589.471 54.4C593.004 50.2667 597.738 48.2 603.671 48.2C609.004 48.2 613.204 49.9667 616.271 53.5C619.404 56.9667 620.971 61.6333 620.971 67.5L620.771 72L620.571 74.1H590.371C590.438 80.9667 591.771 85.7333 594.371 88.4C596.971 91 600.338 92.3 604.471 92.3C607.004 92.3 609.371 92 611.571 91.4C613.771 90.8 615.971 89.8 618.171 88.4L620.071 93.3C617.804 94.7 615.304 95.7667 612.571 96.5C609.904 97.1667 607.338 97.5 604.871 97.5ZM615.171 69.7V67.3C615.171 63.0333 614.138 59.6333 612.071 57.1C610.004 54.5667 607.204 53.3 603.671 53.3C599.604 53.3 596.471 54.7333 594.271 57.6C592.071 60.4667 590.771 64.5 590.371 69.7H615.171Z" fill="#E1FF28"/>
</svg>
