<svg width="522" height="127" viewBox="0 0 522 127" fill="none" xmlns="http://www.w3.org/2000/svg">
<g filter="url(#filter0_d_7_67)">
<path d="M61.2076 1H507C512.523 1 517 5.47715 517 11V108C517 113.523 512.523 118 507 118H61.2076C58.4445 118 55.8046 116.857 53.9143 114.842L8.41791 66.3416C4.80898 62.4944 4.80897 56.5056 8.41791 52.6584L53.9143 4.15838C55.8046 2.14321 58.4445 1 61.2076 1Z" stroke="#FF000F" stroke-width="2"/>
<path d="M85.8 48.9H91L91.4 52C94.6 50.5333 97.2667 49.5333 99.4 49C101.533 48.4667 103.833 48.2 106.3 48.2C111.3 48.2 114.967 49.5333 117.3 52.2C119.633 54.8667 120.8 59 120.8 64.6V97H114.6V64.4C114.6 60.4667 113.967 57.6333 112.7 55.9C111.433 54.1667 109.2 53.3 106 53.3C103.667 53.3 101.4 53.5333 99.2 54C97.0667 54.4667 94.7 55.4333 92.1 56.9V97H85.8V48.9ZM151.145 97.5C144.811 97.5 140.111 95.3667 137.045 91.1C133.978 86.7667 132.445 80.6667 132.445 72.8C132.445 64.6 133.945 58.4667 136.945 54.4C139.945 50.2667 144.678 48.2 151.145 48.2C157.611 48.2 162.345 50.2667 165.345 54.4C168.411 58.4667 169.945 64.6 169.945 72.8C169.945 80.6667 168.411 86.7667 165.345 91.1C162.278 95.3667 157.545 97.5 151.145 97.5ZM151.145 92.3C155.745 92.3 158.978 90.6333 160.845 87.3C162.711 83.9667 163.645 79.1333 163.645 72.8C163.645 66.6 162.678 61.8 160.745 58.4C158.878 55 155.678 53.3 151.145 53.3C146.611 53.3 143.378 55 141.445 58.4C139.578 61.8 138.645 66.6 138.645 72.8C138.645 79.1333 139.578 83.9667 141.445 87.3C143.311 90.6333 146.545 92.3 151.145 92.3ZM181.991 48.9H187.191L187.591 52C190.791 50.5333 193.458 49.5333 195.591 49C197.725 48.4667 200.025 48.2 202.491 48.2C207.491 48.2 211.158 49.5333 213.491 52.2C215.825 54.8667 216.991 59 216.991 64.6V97H210.791V64.4C210.791 60.4667 210.158 57.6333 208.891 55.9C207.625 54.1667 205.391 53.3 202.191 53.3C199.858 53.3 197.591 53.5333 195.391 54C193.258 54.4667 190.891 55.4333 188.291 56.9V97H181.991V48.9ZM228.936 75.1V69.4H254.236V75.1H228.936ZM284.757 97.5C281.024 97.5 277.69 96.5667 274.757 94.7C271.824 92.8333 269.49 90.0667 267.757 86.4C266.09 82.6667 265.257 78.1333 265.257 72.8C265.257 56.4 271.557 48.2 284.157 48.2C288.69 48.2 292.99 49.1667 297.057 51.1V63.7L292.057 64.2V54.4C290.057 53.6 287.39 53.2 284.057 53.2C279.457 53.2 276.19 54.9 274.257 58.3C272.39 61.7 271.457 66.5667 271.457 72.9C271.457 79.1 272.69 83.9 275.157 87.3C277.69 90.7 281.09 92.4 285.357 92.4C289.224 92.4 292.957 91.1667 296.557 88.7L298.957 93.1C296.757 94.7 294.49 95.8333 292.157 96.5C289.89 97.1667 287.424 97.5 284.757 97.5ZM322.945 97.5C318.278 97.5 314.511 96.3333 311.645 94C308.845 91.6667 307.445 88.3 307.445 83.9C307.445 79.6333 309.311 76.1333 313.045 73.4C316.778 70.6667 322.878 69.3 331.345 69.3H335.545V67.8C335.545 62.4667 334.611 58.7333 332.745 56.6C330.945 54.4 328.378 53.3 325.045 53.3C323.245 53.3 321.445 53.5 319.645 53.9C317.845 54.2333 315.111 54.8667 311.445 55.8L310.245 51C315.845 49.1333 320.845 48.2 325.245 48.2C330.311 48.2 334.311 49.7 337.245 52.7C340.245 55.6333 341.745 60.3667 341.745 66.9V97H337.245L336.245 93.8C335.045 94.7333 333.145 95.6 330.545 96.4C327.945 97.1333 325.411 97.5 322.945 97.5ZM323.845 92.5C325.911 92.5 328.045 92.2 330.245 91.6C332.445 90.9333 334.211 90.1667 335.545 89.3V73.9H332.845C327.311 73.9 322.678 74.5333 318.945 75.8C315.211 77.0667 313.345 79.6 313.345 83.4C313.345 86.4 314.245 88.6667 316.045 90.2C317.845 91.7333 320.445 92.5 323.845 92.5ZM355.429 48.9H360.629L361.029 52C364.229 50.5333 366.896 49.5333 369.029 49C371.162 48.4667 373.462 48.2 375.929 48.2C380.929 48.2 384.596 49.5333 386.929 52.2C389.262 54.8667 390.429 59 390.429 64.6V97H384.229V64.4C384.229 60.4667 383.596 57.6333 382.329 55.9C381.062 54.1667 378.829 53.3 375.629 53.3C373.296 53.3 371.029 53.5333 368.829 54C366.696 54.4667 364.329 55.4333 361.729 56.9V97H355.429V48.9ZM420.773 97.5C414.44 97.5 409.74 95.3667 406.673 91.1C403.607 86.7667 402.073 80.6667 402.073 72.8C402.073 64.6 403.573 58.4667 406.573 54.4C409.573 50.2667 414.307 48.2 420.773 48.2C427.24 48.2 431.973 50.2667 434.973 54.4C438.04 58.4667 439.573 64.6 439.573 72.8C439.573 80.6667 438.04 86.7667 434.973 91.1C431.907 95.3667 427.173 97.5 420.773 97.5ZM420.773 92.3C425.373 92.3 428.607 90.6333 430.473 87.3C432.34 83.9667 433.273 79.1333 433.273 72.8C433.273 66.6 432.307 61.8 430.373 58.4C428.507 55 425.307 53.3 420.773 53.3C416.24 53.3 413.007 55 411.073 58.4C409.207 61.8 408.273 66.6 408.273 72.8C408.273 79.1333 409.207 83.9667 411.073 87.3C412.94 90.6333 416.173 92.3 420.773 92.3ZM451.62 48.9H456.82L457.22 52C460.42 50.5333 463.087 49.5333 465.22 49C467.354 48.4667 469.654 48.2 472.12 48.2C477.12 48.2 480.787 49.5333 483.12 52.2C485.454 54.8667 486.62 59 486.62 64.6V97H480.42V64.4C480.42 60.4667 479.787 57.6333 478.52 55.9C477.254 54.1667 475.02 53.3 471.82 53.3C469.487 53.3 467.22 53.5333 465.02 54C462.887 54.4667 460.52 55.4333 457.92 56.9V97H451.62V48.9Z" fill="#FF000F"/>
</g>
<defs>
<filter id="filter0_d_7_67" x="0.711182" y="0" width="521.289" height="127" filterUnits="userSpaceOnUse" color-interpolation-filters="sRGB">
<feFlood flood-opacity="0" result="BackgroundImageFix"/>
<feColorMatrix in="SourceAlpha" type="matrix" values="0 0 0 0 0 0 0 0 0 0 0 0 0 0 0 0 0 0 127 0" result="hardAlpha"/>
<feOffset dy="4"/>
<feGaussianBlur stdDeviation="2"/>
<feComposite in2="hardAlpha" operator="out"/>
<feColorMatrix type="matrix" values="0 0 0 0 0 0 0 0 0 0 0 0 0 0 0 0 0 0 0.25 0"/>
<feBlend mode="normal" in2="BackgroundImageFix" result="effect1_dropShadow_7_67"/>
<feBlend mode="normal" in="SourceGraphic" in2="effect1_dropShadow_7_67" result="shape"/>
</filter>
</defs>
</svg>
