<svg width="622" height="119" viewBox="0 0 622 119" fill="none" xmlns="http://www.w3.org/2000/svg">
<path d="M62.6421 1H611C616.523 1 621 5.47715 621 11V108C621 113.523 616.523 118 611 118H62.6421C59.99 118 57.4464 116.946 55.5711 115.071L7.07107 66.5711C3.16583 62.6658 3.16583 56.3342 7.07107 52.4289L55.5711 3.92893C57.4464 2.05357 59.99 1 62.6421 1Z" stroke="#CC7A00" stroke-width="2"/>
<path d="M96.3 34.3H113.3C120.1 34.3 125.2 35.6667 128.6 38.4C132.067 41.1333 133.8 45.9333 133.8 52.8C133.8 57.6667 132.833 61.4 130.9 64C128.967 66.6 126.133 68.4 122.4 69.4C118.733 70.3333 113.867 70.8 107.8 70.8H102.5V97H96.3V34.3ZM106.6 65.7C112.2 65.7 116.367 65.5 119.1 65.1C121.833 64.6333 123.9 63.5 125.3 61.7C126.767 59.8333 127.5 56.9 127.5 52.9C127.5 47.7 126.4 44.1333 124.2 42.2C122.067 40.2 118.567 39.2 113.7 39.2H102.5V65.7H106.6ZM164.352 97.5C158.618 97.5 154.152 96.2667 150.952 93.8C147.818 91.3333 145.618 87.8 144.352 83.2C143.152 78.5333 142.552 72.6 142.552 65.4C142.552 58.2667 143.185 52.4 144.452 47.8C145.785 43.1333 148.052 39.6 151.252 37.2C154.452 34.7333 158.818 33.5 164.352 33.5C169.885 33.5 174.252 34.7333 177.452 37.2C180.652 39.6 182.918 43.1333 184.252 47.8C185.585 52.4 186.252 58.2667 186.252 65.4C186.252 72.6667 185.618 78.6 184.352 83.2C183.152 87.8 180.952 91.3333 177.752 93.8C174.552 96.2667 170.085 97.5 164.352 97.5ZM164.352 92.3C168.418 92.3 171.585 91.3667 173.852 89.5C176.118 87.6333 177.718 84.8 178.652 81C179.585 77.1333 180.052 71.9667 180.052 65.5C180.052 59.0333 179.552 53.8667 178.552 50C177.618 46.1333 176.018 43.3 173.752 41.5C171.485 39.6333 168.352 38.7 164.352 38.7C160.352 38.7 157.218 39.6333 154.952 41.5C152.752 43.3 151.152 46.1333 150.152 50C149.218 53.8667 148.752 59.0333 148.752 65.5C148.752 71.9667 149.218 77.1333 150.152 81C151.085 84.8 152.685 87.6333 154.952 89.5C157.218 91.3667 160.352 92.3 164.352 92.3ZM199.23 97V34.3H205.83L237.23 86.3V34.3H242.93V97H236.73L205.13 44.2V97H199.23ZM277.73 97.5C271.997 97.5 267.53 96.2667 264.33 93.8C261.197 91.3333 258.997 87.8 257.73 83.2C256.53 78.5333 255.93 72.6 255.93 65.4C255.93 58.2667 256.564 52.4 257.83 47.8C259.164 43.1333 261.43 39.6 264.63 37.2C267.83 34.7333 272.197 33.5 277.73 33.5C283.264 33.5 287.63 34.7333 290.83 37.2C294.03 39.6 296.297 43.1333 297.63 47.8C298.964 52.4 299.63 58.2667 299.63 65.4C299.63 72.6667 298.997 78.6 297.73 83.2C296.53 87.8 294.33 91.3333 291.13 93.8C287.93 96.2667 283.464 97.5 277.73 97.5ZM277.73 92.3C281.797 92.3 284.964 91.3667 287.23 89.5C289.497 87.6333 291.097 84.8 292.03 81C292.964 77.1333 293.43 71.9667 293.43 65.5C293.43 59.0333 292.93 53.8667 291.93 50C290.997 46.1333 289.397 43.3 287.13 41.5C284.864 39.6333 281.73 38.7 277.73 38.7C273.73 38.7 270.597 39.6333 268.33 41.5C266.13 43.3 264.53 46.1333 263.53 50C262.597 53.8667 262.13 59.0333 262.13 65.5C262.13 71.9667 262.597 77.1333 263.53 81C264.464 84.8 266.064 87.6333 268.33 89.5C270.597 91.3667 273.73 92.3 277.73 92.3ZM328.309 97.5C320.975 97.5 315.009 96.2333 310.409 93.7L311.809 88.6C314.475 89.7333 317.009 90.6333 319.409 91.3C321.875 91.9667 324.842 92.3 328.309 92.3C332.509 92.3 335.775 91.2667 338.109 89.2C340.509 87.1333 341.709 83.9667 341.709 79.7C341.709 77.2333 341.275 75.3 340.409 73.9C339.542 72.4333 338.309 71.2667 336.709 70.4C335.109 69.5333 332.775 68.6 329.709 67.6L323.709 65.6C319.309 64.0667 315.975 62.1 313.709 59.7C311.509 57.2333 310.409 53.9 310.409 49.7C310.409 44.1 312.175 40 315.709 37.4C319.242 34.8 323.875 33.5 329.609 33.5C336.009 33.5 341.609 34.5 346.409 36.5L345.309 41.5C342.975 40.6333 340.609 39.9667 338.209 39.5C335.875 38.9667 333.275 38.7 330.409 38.7C321.275 38.7 316.709 42.3 316.709 49.5C316.709 52.2333 317.309 54.3333 318.509 55.8C319.709 57.2 322.109 58.5333 325.709 59.8L331.209 61.8C335.342 63.2667 338.375 64.5 340.309 65.5C342.309 66.5 344.075 68.1333 345.609 70.4C347.142 72.6667 347.909 75.8 347.909 79.8C347.909 85.4667 346.142 89.8333 342.609 92.9C339.075 95.9667 334.309 97.5 328.309 97.5ZM357.1 75.1V69.4H382.4V75.1H357.1ZM412.121 97.5C405.788 97.5 401.088 95.3667 398.021 91.1C394.954 86.7667 393.421 80.6667 393.421 72.8C393.421 64.6 394.921 58.4667 397.921 54.4C400.921 50.2667 405.654 48.2 412.121 48.2C418.588 48.2 423.321 50.2667 426.321 54.4C429.388 58.4667 430.921 64.6 430.921 72.8C430.921 80.6667 429.388 86.7667 426.321 91.1C423.254 95.3667 418.521 97.5 412.121 97.5ZM412.121 92.3C416.721 92.3 419.954 90.6333 421.821 87.3C423.688 83.9667 424.621 79.1333 424.621 72.8C424.621 66.6 423.654 61.8 421.721 58.4C419.854 55 416.654 53.3 412.121 53.3C407.588 53.3 404.354 55 402.421 58.4C400.554 61.8 399.621 66.6 399.621 72.8C399.621 79.1333 400.554 83.9667 402.421 87.3C404.288 90.6333 407.521 92.3 412.121 92.3ZM459.168 97.5C455.768 97.4333 453.135 96.7 451.268 95.3C449.401 93.9 448.101 91.8333 447.368 89.1C446.701 86.3667 446.368 82.7 446.368 78.1V53.3H438.868V48.9H446.568L447.768 35.1H452.668V48.9H467.668V53.3H452.668V78.2C452.668 82.3333 452.968 85.4 453.568 87.4C454.235 89.4 455.101 90.7333 456.168 91.4C457.301 92 458.868 92.3 460.868 92.3C464.468 92.3 466.901 92.2 468.168 92L468.468 97C465.868 97.3333 462.768 97.5 459.168 97.5ZM479.198 30.7H485.498V52.5C490.632 49.6333 495.498 48.2 500.098 48.2C504.698 48.2 508.098 49.5333 510.298 52.2C512.498 54.8 513.598 58.9333 513.598 64.6V97H507.398V64.3C507.398 60.4333 506.832 57.6333 505.698 55.9C504.565 54.1667 502.565 53.3 499.698 53.3C495.898 53.3 491.165 54.8333 485.498 57.9V97H479.198V30.7ZM545.859 97.5C532.059 97.5 525.159 89.2667 525.159 72.8C525.159 64.6 526.926 58.4667 530.459 54.4C533.993 50.2667 538.726 48.2 544.659 48.2C549.993 48.2 554.193 49.9667 557.259 53.5C560.393 56.9667 561.959 61.6333 561.959 67.5L561.759 72L561.559 74.1H531.359C531.426 80.9667 532.759 85.7333 535.359 88.4C537.959 91 541.326 92.3 545.459 92.3C547.993 92.3 550.359 92 552.559 91.4C554.759 90.8 556.959 89.8 559.159 88.4L561.059 93.3C558.793 94.7 556.293 95.7667 553.559 96.5C550.893 97.1667 548.326 97.5 545.859 97.5ZM556.159 69.7V67.3C556.159 63.0333 555.126 59.6333 553.059 57.1C550.993 54.5667 548.193 53.3 544.659 53.3C540.593 53.3 537.459 54.7333 535.259 57.6C533.059 60.4667 531.759 64.5 531.359 69.7H556.159ZM574.03 48.9H580.03L580.23 53.1C582.096 51.8333 584.496 50.7333 587.43 49.8C590.43 48.8667 593.196 48.3333 595.73 48.2V53.4C592.863 53.4 589.963 53.8333 587.03 54.7C584.163 55.5667 581.93 56.5667 580.33 57.7V97H574.03V48.9Z" fill="#CC7A00"/>
</svg>
