<svg width="350" height="119" viewBox="0 0 350 119" fill="none" xmlns="http://www.w3.org/2000/svg">
<path d="M59.3305 1H338.998C344.521 1 348.998 5.47715 348.998 11V108C348.998 113.523 344.521 118 338.998 118H59.3305C56.5675 118 53.9276 116.857 52.0372 114.842L6.54084 66.3416C2.93191 62.4944 2.9319 56.5056 6.54083 52.6584L52.0372 4.15838C53.9276 2.14321 56.5675 1 59.3305 1Z" stroke="#FF000F" stroke-width="2"/>
<path d="M83.9982 97.5C80.5982 97.4333 77.9648 96.7 76.0982 95.3C74.2315 93.9 72.9315 91.8333 72.1982 89.1C71.5315 86.3667 71.1982 82.7 71.1982 78.1V53.3H63.6982V48.9H71.3982L72.5982 35.1H77.4982V48.9H92.4982V53.3H77.4982V78.2C77.4982 82.3333 77.7982 85.4 78.3982 87.4C79.0648 89.4 79.9315 90.7333 80.9982 91.4C82.1315 92 83.6982 92.3 85.6982 92.3C89.2982 92.3 91.7315 92.2 92.9982 92L93.2982 97C90.6982 97.3333 87.5982 97.5 83.9982 97.5ZM104.029 30.7H110.329V52.5C115.462 49.6333 120.329 48.2 124.929 48.2C129.529 48.2 132.929 49.5333 135.129 52.2C137.329 54.8 138.429 58.9333 138.429 64.6V97H132.229V64.3C132.229 60.4333 131.662 57.6333 130.529 55.9C129.395 54.1667 127.395 53.3 124.529 53.3C120.729 53.3 115.995 54.8333 110.329 57.9V97H104.029V30.7ZM170.69 97.5C156.89 97.5 149.99 89.2667 149.99 72.8C149.99 64.6 151.756 58.4667 155.29 54.4C158.823 50.2667 163.556 48.2 169.49 48.2C174.823 48.2 179.023 49.9667 182.09 53.5C185.223 56.9667 186.79 61.6333 186.79 67.5L186.59 72L186.39 74.1H156.19C156.256 80.9667 157.59 85.7333 160.19 88.4C162.79 91 166.156 92.3 170.29 92.3C172.823 92.3 175.19 92 177.39 91.4C179.59 90.8 181.79 89.8 183.99 88.4L185.89 93.3C183.623 94.7 181.123 95.7667 178.39 96.5C175.723 97.1667 173.156 97.5 170.69 97.5ZM180.99 69.7V67.3C180.99 63.0333 179.956 59.6333 177.89 57.1C175.823 54.5667 173.023 53.3 169.49 53.3C165.423 53.3 162.29 54.7333 160.09 57.6C157.89 60.4667 156.59 64.5 156.19 69.7H180.99ZM215.76 97.5C209.427 97.5 204.727 95.3667 201.66 91.1C198.593 86.7667 197.06 80.6667 197.06 72.8C197.06 64.6 198.56 58.4667 201.56 54.4C204.56 50.2667 209.293 48.2 215.76 48.2C222.227 48.2 226.96 50.2667 229.96 54.4C233.027 58.4667 234.56 64.6 234.56 72.8C234.56 80.6667 233.027 86.7667 229.96 91.1C226.893 95.3667 222.16 97.5 215.76 97.5ZM215.76 92.3C220.36 92.3 223.593 90.6333 225.46 87.3C227.327 83.9667 228.26 79.1333 228.26 72.8C228.26 66.6 227.293 61.8 225.36 58.4C223.493 55 220.293 53.3 215.76 53.3C211.227 53.3 207.993 55 206.06 58.4C204.193 61.8 203.26 66.6 203.26 72.8C203.26 79.1333 204.193 83.9667 206.06 87.3C207.927 90.6333 211.16 92.3 215.76 92.3ZM246.907 48.9H252.907L253.107 53.1C254.973 51.8333 257.373 50.7333 260.307 49.8C263.307 48.8667 266.073 48.3333 268.607 48.2V53.4C265.74 53.4 262.84 53.8333 259.907 54.7C257.04 55.5667 254.807 56.5667 253.207 57.7V97H246.907V48.9ZM285.543 116C282.943 116 280.276 115.433 277.543 114.3L278.443 109.4L278.543 109.3C281.343 110.167 283.543 110.6 285.143 110.6C286.876 110.6 288.209 109.867 289.143 108.4C290.076 106.933 290.843 105.267 291.443 103.4C292.043 101.533 292.443 100.3 292.643 99.7L293.943 95.7L274.143 48.9H280.843L296.643 88.9L309.643 48.9H316.243L299.343 97.8C297.743 102.4 296.376 105.9 295.243 108.3C294.176 110.7 292.876 112.567 291.343 113.9C289.809 115.3 287.876 116 285.543 116Z" fill="#FF000F"/>
</svg>
