<svg width="846" height="119" viewBox="0 0 846 119" fill="none" xmlns="http://www.w3.org/2000/svg">
<path d="M62.6421 1H835C840.523 1 845 5.47715 845 11V108C845 113.523 840.523 118 835 118H62.6421C59.99 118 57.4464 116.946 55.5711 115.071L7.07107 66.5711C3.16583 62.6658 3.16583 56.3342 7.07107 52.4289L55.5711 3.92893C57.4464 2.05357 59.99 1 62.6421 1Z" stroke="#8000FF" stroke-width="2"/>
<path d="M103.2 97L87.2 48.9H93.5L106.6 90.3L119 48.9H125.4L109.9 97H103.2ZM154.531 97.5C140.731 97.5 133.831 89.2667 133.831 72.8C133.831 64.6 135.598 58.4667 139.131 54.4C142.665 50.2667 147.398 48.2 153.331 48.2C158.665 48.2 162.865 49.9667 165.931 53.5C169.065 56.9667 170.631 61.6333 170.631 67.5L170.431 72L170.231 74.1H140.031C140.098 80.9667 141.431 85.7333 144.031 88.4C146.631 91 149.998 92.3 154.131 92.3C156.665 92.3 159.031 92 161.231 91.4C163.431 90.8 165.631 89.8 167.831 88.4L169.731 93.3C167.465 94.7 164.965 95.7667 162.231 96.5C159.565 97.1667 156.998 97.5 154.531 97.5ZM164.831 69.7V67.3C164.831 63.0333 163.798 59.6333 161.731 57.1C159.665 54.5667 156.865 53.3 153.331 53.3C149.265 53.3 146.131 54.7333 143.931 57.6C141.731 60.4667 140.431 64.5 140.031 69.7H164.831ZM182.702 48.9H188.702L188.902 53.1C190.768 51.8333 193.168 50.7333 196.102 49.8C199.102 48.8667 201.868 48.3333 204.402 48.2V53.4C201.535 53.4 198.635 53.8333 195.702 54.7C192.835 55.5667 190.602 56.5667 189.002 57.7V97H182.702V48.9ZM228.838 97.5C226.238 97.5 223.504 97.1667 220.637 96.5C217.838 95.7667 215.204 94.8 212.738 93.6L214.738 88.8C216.404 89.7333 218.504 90.5667 221.038 91.3C223.638 91.9667 226.138 92.3 228.538 92.3C231.538 92.3 233.938 91.6667 235.738 90.4C237.604 89.0667 238.538 86.9667 238.538 84.1C238.538 81.8333 238.004 80.1333 236.938 79C235.938 77.8667 234.338 76.9333 232.138 76.2L224.838 74C222.171 73.1333 220.038 72.2333 218.438 71.3C216.838 70.3667 215.604 69.1 214.738 67.5C213.871 65.8333 213.438 63.7 213.438 61.1C213.438 56.7667 214.938 53.5333 217.938 51.4C220.938 49.2667 224.704 48.2 229.238 48.2C233.971 48.2 238.304 49.1333 242.238 51L240.438 55.7C238.904 54.9667 237.171 54.4 235.238 54C233.371 53.5333 231.538 53.3 229.738 53.3C226.738 53.3 224.271 53.9667 222.338 55.3C220.404 56.5667 219.438 58.6 219.438 61.4C219.438 62.8667 219.704 64 220.238 64.8C220.771 65.6 221.504 66.2333 222.438 66.7C223.371 67.1667 224.771 67.7 226.638 68.3L233.837 70.6C237.771 71.8667 240.538 73.4333 242.138 75.3C243.804 77.1667 244.638 80 244.638 83.8C244.638 88.5333 243.138 92 240.138 94.2C237.204 96.4 233.438 97.5 228.838 97.5ZM266.655 39.6C265.389 39.6 264.322 39.2333 263.455 38.5C262.589 37.7 262.155 36.6333 262.155 35.3C262.155 33.9667 262.589 32.9 263.455 32.1C264.322 31.2333 265.389 30.8 266.655 30.8C267.922 30.8 268.955 31.2 269.755 32C270.622 32.7333 271.055 33.8 271.055 35.2C271.055 36.6 270.622 37.7 269.755 38.5C268.955 39.2333 267.922 39.6 266.655 39.6ZM254.155 97V92.6H263.455V53.3H254.155V48.9H269.755V92.6H279.155V97H254.155ZM305.559 97.5C299.225 97.5 294.525 95.3667 291.459 91.1C288.392 86.7667 286.859 80.6667 286.859 72.8C286.859 64.6 288.359 58.4667 291.359 54.4C294.359 50.2667 299.092 48.2 305.559 48.2C312.025 48.2 316.759 50.2667 319.759 54.4C322.825 58.4667 324.359 64.6 324.359 72.8C324.359 80.6667 322.825 86.7667 319.759 91.1C316.692 95.3667 311.959 97.5 305.559 97.5ZM305.559 92.3C310.159 92.3 313.392 90.6333 315.259 87.3C317.125 83.9667 318.059 79.1333 318.059 72.8C318.059 66.6 317.092 61.8 315.159 58.4C313.292 55 310.092 53.3 305.559 53.3C301.025 53.3 297.792 55 295.859 58.4C293.992 61.8 293.059 66.6 293.059 72.8C293.059 79.1333 293.992 83.9667 295.859 87.3C297.725 90.6333 300.959 92.3 305.559 92.3ZM336.405 48.9H341.605L342.005 52C345.205 50.5333 347.872 49.5333 350.005 49C352.139 48.4667 354.439 48.2 356.905 48.2C361.905 48.2 365.572 49.5333 367.905 52.2C370.239 54.8667 371.405 59 371.405 64.6V97H365.205V64.4C365.205 60.4667 364.572 57.6333 363.305 55.9C362.039 54.1667 359.805 53.3 356.605 53.3C354.272 53.3 352.005 53.5333 349.805 54C347.672 54.4667 345.305 55.4333 342.705 56.9V97H336.405V48.9ZM383.35 75.1V69.4H408.65V75.1H383.35ZM439.471 97.5C433.271 97.5 428.404 95.5333 424.871 91.6C421.404 87.6667 419.671 81.4333 419.671 72.9C419.671 67.3 420.471 62.6667 422.071 59C423.738 55.2667 425.938 52.5333 428.671 50.8C431.471 49.0667 434.571 48.2 437.971 48.2C440.171 48.2 442.238 48.4667 444.171 49C446.104 49.5333 448.238 50.5 450.571 51.9V30.7H456.871V97H451.771L451.271 94.6C447.604 96.5333 443.671 97.5 439.471 97.5ZM441.671 92.3C443.271 92.3 444.704 92.2 445.971 92C447.238 91.7333 448.771 91.1667 450.571 90.3V57.5C447.971 55.9667 445.771 54.9 443.971 54.3C442.171 53.6333 440.438 53.3 438.771 53.3C434.771 53.3 431.604 54.9667 429.271 58.3C427.004 61.5667 425.871 66.4667 425.871 73C425.871 85.8667 430.704 92.3 440.371 92.3H441.671ZM481.988 39.6C480.721 39.6 479.654 39.2333 478.788 38.5C477.921 37.7 477.488 36.6333 477.488 35.3C477.488 33.9667 477.921 32.9 478.788 32.1C479.654 31.2333 480.721 30.8 481.988 30.8C483.254 30.8 484.288 31.2 485.088 32C485.954 32.7333 486.388 33.8 486.388 35.2C486.388 36.6 485.954 37.7 485.088 38.5C484.288 39.2333 483.254 39.6 481.988 39.6ZM469.488 97V92.6H478.788V53.3H469.488V48.9H485.088V92.6H494.488V97H469.488ZM509.291 53.4H499.891V48.9H509.291C509.291 43.9667 509.624 40.1333 510.291 37.4C510.957 34.6 512.191 32.5333 513.991 31.2C515.791 29.8 518.424 29.0333 521.891 28.9C525.357 28.9 528.391 29.3333 530.991 30.2L530.191 35.1C529.324 34.9 528.157 34.7 526.691 34.5C525.291 34.2333 524.157 34.1 523.291 34.1C521.291 34.1 519.757 34.4667 518.691 35.2C517.624 35.8667 516.824 37.2667 516.291 39.4C515.824 41.4667 515.591 44.6333 515.591 48.9H537.891C537.891 43.9667 538.224 40.1333 538.891 37.4C539.624 34.6 540.891 32.5333 542.691 31.2C544.491 29.8 547.124 29.0333 550.591 28.9C553.991 28.9 556.991 29.3333 559.591 30.2L558.791 35.1C557.924 34.9 556.757 34.7 555.291 34.5C553.891 34.2333 552.757 34.1 551.891 34.1C549.891 34.1 548.357 34.4667 547.291 35.2C546.224 35.8667 545.424 37.2667 544.891 39.4C544.424 41.4667 544.191 44.6333 544.191 48.9H555.091V53.4H544.191V97H537.891V53.4H515.591V97H509.291V53.4ZM585 97.5C571.2 97.5 564.3 89.2667 564.3 72.8C564.3 64.6 566.067 58.4667 569.6 54.4C573.133 50.2667 577.867 48.2 583.8 48.2C589.133 48.2 593.333 49.9667 596.4 53.5C599.533 56.9667 601.1 61.6333 601.1 67.5L600.9 72L600.7 74.1H570.5C570.567 80.9667 571.9 85.7333 574.5 88.4C577.1 91 580.467 92.3 584.6 92.3C587.133 92.3 589.5 92 591.7 91.4C593.9 90.8 596.1 89.8 598.3 88.4L600.2 93.3C597.933 94.7 595.433 95.7667 592.7 96.5C590.033 97.1667 587.467 97.5 585 97.5ZM595.3 69.7V67.3C595.3 63.0333 594.267 59.6333 592.2 57.1C590.133 54.5667 587.333 53.3 583.8 53.3C579.733 53.3 576.6 54.7333 574.4 57.6C572.2 60.4667 570.9 64.5 570.5 69.7H595.3ZM613.17 48.9H619.17L619.37 53.1C621.237 51.8333 623.637 50.7333 626.57 49.8C629.57 48.8667 632.337 48.3333 634.87 48.2V53.4C632.004 53.4 629.104 53.8333 626.17 54.7C623.304 55.5667 621.07 56.5667 619.47 57.7V97H613.17V48.9ZM663.906 97.5C650.106 97.5 643.206 89.2667 643.206 72.8C643.206 64.6 644.973 58.4667 648.506 54.4C652.04 50.2667 656.773 48.2 662.706 48.2C668.04 48.2 672.24 49.9667 675.306 53.5C678.44 56.9667 680.006 61.6333 680.006 67.5L679.806 72L679.606 74.1H649.406C649.473 80.9667 650.806 85.7333 653.406 88.4C656.006 91 659.373 92.3 663.506 92.3C666.04 92.3 668.406 92 670.606 91.4C672.806 90.8 675.006 89.8 677.206 88.4L679.106 93.3C676.84 94.7 674.34 95.7667 671.606 96.5C668.94 97.1667 666.373 97.5 663.906 97.5ZM674.206 69.7V67.3C674.206 63.0333 673.173 59.6333 671.106 57.1C669.04 54.5667 666.24 53.3 662.706 53.3C658.64 53.3 655.506 54.7333 653.306 57.6C651.106 60.4667 649.806 64.5 649.406 69.7H674.206ZM691.777 48.9H696.977L697.377 52C700.577 50.5333 703.243 49.5333 705.377 49C707.51 48.4667 709.81 48.2 712.277 48.2C717.277 48.2 720.943 49.5333 723.277 52.2C725.61 54.8667 726.777 59 726.777 64.6V97H720.577V64.4C720.577 60.4667 719.943 57.6333 718.677 55.9C717.41 54.1667 715.177 53.3 711.977 53.3C709.643 53.3 707.377 53.5333 705.177 54C703.043 54.4667 700.677 55.4333 698.077 56.9V97H691.777V48.9ZM757.921 97.5C754.188 97.5 750.854 96.5667 747.921 94.7C744.988 92.8333 742.654 90.0667 740.921 86.4C739.254 82.6667 738.421 78.1333 738.421 72.8C738.421 56.4 744.721 48.2 757.321 48.2C761.854 48.2 766.154 49.1667 770.221 51.1V63.7L765.221 64.2V54.4C763.221 53.6 760.554 53.2 757.221 53.2C752.621 53.2 749.354 54.9 747.421 58.3C745.554 61.7 744.621 66.5667 744.621 72.9C744.621 79.1 745.854 83.9 748.321 87.3C750.854 90.7 754.254 92.4 758.521 92.4C762.388 92.4 766.121 91.1667 769.721 88.7L772.121 93.1C769.921 94.7 767.654 95.8333 765.321 96.5C763.054 97.1667 760.588 97.5 757.921 97.5ZM801.309 97.5C787.509 97.5 780.609 89.2667 780.609 72.8C780.609 64.6 782.375 58.4667 785.909 54.4C789.442 50.2667 794.175 48.2 800.109 48.2C805.442 48.2 809.642 49.9667 812.709 53.5C815.842 56.9667 817.409 61.6333 817.409 67.5L817.209 72L817.009 74.1H786.809C786.875 80.9667 788.209 85.7333 790.809 88.4C793.409 91 796.775 92.3 800.909 92.3C803.442 92.3 805.809 92 808.009 91.4C810.209 90.8 812.409 89.8 814.609 88.4L816.509 93.3C814.242 94.7 811.742 95.7667 809.009 96.5C806.342 97.1667 803.775 97.5 801.309 97.5ZM811.609 69.7V67.3C811.609 63.0333 810.575 59.6333 808.509 57.1C806.442 54.5667 803.642 53.3 800.109 53.3C796.042 53.3 792.909 54.7333 790.709 57.6C788.509 60.4667 787.209 64.5 786.809 69.7H811.609Z" fill="#8000FF"/>
</svg>
