<?xml version="1.0" standalone="no"?>
<!DOCTYPE svg PUBLIC "-//W3C//DTD SVG 20010904//EN"
 "http://www.w3.org/TR/2001/REC-SVG-20010904/DTD/svg10.dtd">
<svg version="1.0" xmlns="http://www.w3.org/2000/svg"
 width="200.000000pt" height="200.000000pt" viewBox="0 0 200.000000 200.000000"
 preserveAspectRatio="xMidYMid meet">
<metadata>
Created by potrace 1.14, written by Peter Selinger 2001-2017
</metadata>
<g transform="translate(0.000000,200.000000) scale(0.100000,-0.100000)"
fill="#000000" stroke="none">
<path d="M0 1899 l0 -102 23 34 c30 45 53 43 86 -6 25 -37 31 -40 76 -43 71
-4 82 -23 49 -79 l-25 -44 20 -43 c12 -23 21 -48 21 -56 0 -23 -32 -38 -62
-29 -23 6 -34 3 -58 -18 -17 -13 -30 -31 -30 -39 0 -8 -10 -19 -23 -23 -18 -8
-27 -4 -49 22 l-27 32 -1 -397 c0 -346 2 -398 15 -398 8 0 26 -18 40 -40 25
-40 58 -57 95 -47 10 3 27 -1 37 -8 16 -12 16 -16 -10 -64 l-28 -50 26 -41
c36 -57 23 -80 -45 -80 -47 0 -51 -2 -76 -39 -14 -22 -32 -42 -40 -45 -11 -4
-14 -35 -14 -151 l0 -145 380 0 380 0 0 29 c0 33 14 41 69 41 34 0 71 25 71
49 0 15 39 43 50 36 6 -4 22 -24 36 -46 23 -37 27 -39 74 -39 43 0 52 -3 59
-22 5 -13 6 -29 3 -37 -9 -25 83 -7 129 25 28 19 45 25 53 18 72 -52 47 -49
383 -52 l313 -3 0 100 c0 111 -10 131 -44 88 -12 -15 -31 -39 -43 -54 l-23
-28 -22 27 c-13 15 -30 37 -39 49 -11 16 -25 22 -50 21 -72 -3 -90 19 -59 71
25 41 25 68 0 100 -11 14 -20 32 -20 41 0 20 46 39 75 32 27 -7 61 16 80 55
22 41 46 36 83 -17 18 -25 38 -44 45 -41 9 3 13 94 14 378 l2 374 -27 40 c-26
38 -31 40 -85 43 -53 3 -57 5 -57 27 0 13 9 39 20 57 18 32 18 78 0 78 -12 0
-29 55 -21 68 4 6 33 12 64 13 51 2 58 5 63 26 4 12 10 23 14 23 4 0 10 9 13
20 4 16 0 20 -19 20 -14 0 -27 -6 -30 -14 -9 -25 -42 -24 -78 0 -20 14 -46 28
-58 33 -20 7 -23 15 -24 84 l-1 76 32 11 c18 6 41 20 50 30 21 23 63 26 71 6
4 -12 53 -36 70 -36 2 0 4 45 4 100 l0 100 -503 0 -504 0 -11 -26 c-15 -31
-52 -30 -67 4 l-10 22 -452 0 -453 0 0 -101z m645 -66 c24 -43 26 -52 15 -81
-10 -29 -9 -36 6 -53 9 -10 20 -19 23 -19 3 0 18 18 33 39 34 48 65 58 80 27
8 -19 5 -31 -17 -66 -44 -70 -54 -101 -42 -127 5 -13 14 -23 18 -23 5 0 30 37
57 83 52 87 82 107 109 71 22 -30 15 -52 -34 -118 -27 -35 -53 -72 -60 -82
-11 -18 -12 -18 -28 4 -21 29 -32 28 -38 -5 -3 -16 -7 -39 -10 -53 -3 -14 -8
-52 -12 -85 -6 -51 -13 -66 -45 -101 -20 -22 -52 -70 -69 -107 -17 -36 -44
-75 -59 -87 -21 -17 -22 -19 -4 -10 18 9 23 8 28 -4 10 -26 -1 -51 -19 -48
-16 3 -15 0 3 -18 12 -12 30 -41 40 -66 25 -58 82 -144 91 -138 15 9 48 -47
44 -77 -2 -16 1 -31 6 -34 5 -4 9 7 9 23 0 16 3 31 6 34 4 5 59 -16 73 -29 9
-7 -38 -42 -63 -49 -14 -3 -26 -13 -26 -20 0 -10 20 -4 66 22 65 36 67 36 125
25 33 -7 79 -9 104 -6 38 6 51 3 99 -25 31 -17 60 -29 64 -26 5 3 10 29 11 57
1 49 5 57 57 111 32 33 67 84 84 120 21 48 38 69 69 88 44 27 49 35 27 43 -9
4 -17 -2 -21 -14 -10 -30 -37 -24 -34 9 4 43 -64 176 -120 235 -47 50 -51 58
-51 104 0 27 -7 64 -16 82 -9 17 -13 38 -10 46 7 20 -12 29 -29 15 -16 -13
-33 10 -81 107 -21 42 -23 55 -14 72 17 32 46 25 75 -16 14 -21 25 -41 25 -46
0 -5 14 -29 31 -53 25 -37 33 -43 45 -33 22 18 17 41 -24 116 -31 56 -37 74
-29 91 18 40 52 28 83 -28 15 -27 31 -50 35 -50 5 0 16 11 25 25 13 20 14 29
4 58 -11 30 -10 37 14 75 25 40 29 42 74 42 56 0 61 -3 90 -57 l22 -41 -22
-39 c-26 -45 -36 -53 -65 -53 -22 0 -62 -45 -50 -56 3 -3 30 -8 61 -11 59 -6
77 -25 57 -60 -8 -15 -25 -18 -102 -19 -77 -1 -94 -4 -106 -20 -24 -33 -10
-39 98 -39 100 -1 104 -2 116 -25 23 -46 -1 -55 -142 -55 -68 0 -126 -3 -130
-6 -8 -8 50 -125 117 -237 27 -46 47 -89 44 -97 -4 -10 0 -12 14 -7 17 6 120
163 120 183 0 11 42 39 57 39 8 0 19 -11 25 -25 9 -20 8 -28 -4 -42 -8 -10
-31 -48 -52 -85 l-37 -68 35 0 c33 0 38 5 77 70 35 60 45 70 69 70 39 0 43
-22 15 -72 -34 -59 -33 -78 4 -78 29 0 61 22 61 41 0 6 26 9 63 7 l62 -3 24
-47 24 -47 -28 -44 -28 -43 -56 4 c-44 3 -60 9 -74 28 -20 26 -67 33 -67 10 0
-8 9 -36 20 -62 19 -44 19 -48 4 -65 -31 -35 -50 -23 -94 57 -37 68 -71 100
-92 87 -16 -9 -7 -33 37 -99 49 -73 51 -80 30 -107 -28 -38 -56 -18 -108 78
-27 50 -55 101 -64 114 l-15 23 -23 -34 c-23 -34 -119 -192 -156 -256 -35 -61
-33 -62 106 -62 115 0 125 -2 135 -20 6 -12 8 -30 5 -41 -6 -19 -14 -20 -107
-17 -104 3 -120 -2 -96 -35 11 -14 30 -17 101 -18 77 -1 89 -3 98 -21 8 -15 8
-27 0 -46 -11 -23 -14 -24 -71 -18 -64 7 -68 4 -48 -39 9 -20 18 -25 48 -25
33 0 38 -4 60 -48 27 -55 27 -62 -7 -113 -25 -37 -28 -39 -80 -39 -42 0 -55 4
-60 18 -3 9 -15 29 -25 45 -17 23 -18 32 -8 62 8 25 8 39 0 55 -15 27 -29 22
-58 -21 -27 -39 -58 -55 -78 -38 -16 13 -19 45 -5 53 5 3 23 34 41 67 28 55
30 65 19 86 -7 13 -16 22 -21 21 -4 -2 -30 -39 -56 -83 -50 -84 -75 -100 -106
-70 -25 25 -20 47 25 106 53 70 93 138 86 146 -8 7 -387 17 -387 10 0 -3 27
-56 61 -116 62 -112 67 -135 36 -155 -25 -16 -43 0 -85 74 -63 112 -59 108
-77 86 -18 -24 -14 -41 32 -123 28 -51 32 -66 23 -83 -20 -37 -54 -25 -84 30
-15 27 -31 50 -35 50 -4 0 -14 -11 -21 -25 -10 -19 -11 -33 -3 -53 8 -22 6
-35 -11 -67 -27 -52 -32 -55 -91 -52 -48 2 -50 3 -74 49 -25 47 -25 48 -7 80
23 41 44 58 70 58 21 1 63 46 52 57 -6 6 -31 10 -83 12 -43 1 -62 34 -37 62
16 17 28 19 97 15 68 -4 81 -2 98 15 10 10 19 26 19 35 0 13 -15 15 -107 13
l-108 -3 -9 27 c-16 46 1 52 144 52 70 0 131 3 135 7 4 4 -2 20 -14 36 -12 17
-21 32 -21 35 0 2 -29 58 -65 123 -63 114 -90 153 -98 143 -3 -3 -94 -158
-121 -206 -1 -1 -13 -4 -28 -8 -21 -5 -29 -2 -38 14 -9 17 -7 27 8 49 22 32
82 139 82 147 0 3 -16 5 -35 5 -31 0 -37 -5 -56 -42 -37 -73 -59 -98 -85 -98
-37 0 -41 27 -11 81 35 61 34 69 -8 69 -26 0 -39 -6 -51 -25 -14 -21 -24 -25
-68 -25 -63 0 -70 5 -91 57 -16 41 -16 43 7 85 12 23 26 41 31 40 4 -1 31 -2
60 -2 48 0 55 -3 65 -26 10 -20 18 -25 40 -22 31 3 32 13 6 80 -18 47 -18 48
1 63 11 8 26 14 34 12 8 -1 35 -37 60 -80 34 -58 50 -77 66 -77 12 0 24 3 27
6 7 7 -17 57 -54 111 -31 46 -35 74 -14 93 32 26 56 7 102 -80 56 -105 72
-130 82 -130 7 0 80 116 170 271 38 64 31 69 -107 69 -110 0 -121 2 -131 20
-8 14 -7 26 1 41 11 21 16 22 110 16 102 -6 109 -4 89 34 -9 16 -22 19 -93 19
-88 0 -107 8 -107 46 0 34 24 47 80 42 27 -3 52 -3 55 0 2 3 -3 18 -12 33 -13
22 -25 29 -49 29 -27 0 -36 7 -58 44 -32 55 -32 67 -1 114 23 35 28 37 79 40
l54 2 27 -47z m181 -415 c16 -24 32 -48 37 -55 5 -8 -8 -19 -39 -32 -26 -12
-49 -21 -52 -21 -6 0 7 130 14 142 8 12 9 11 40 -34z m379 -29 c8 -67 3 -79
-25 -61 -11 7 -27 12 -35 12 -9 0 -18 6 -21 14 -6 16 45 95 63 96 6 0 14 -25
18 -61z m-184 31 c55 0 99 -3 99 -7 0 -5 -6 -15 -13 -24 -9 -12 -36 -17 -110
-21 -90 -5 -100 -4 -118 15 -30 33 -25 51 12 43 17 -3 76 -6 130 -6z m130
-109 c63 -24 139 -86 173 -140 73 -116 53 -271 -49 -374 -126 -126 -370 -143
-511 -33 -98 75 -129 138 -128 256 0 70 4 92 23 125 28 49 85 109 129 137 97
60 251 72 363 29z m-1003 -20 c19 -11 11 -45 -11 -49 -19 -4 -32 20 -23 43 6
17 15 19 34 6z m1062 -627 c0 -39 -6 -41 -49 -16 -35 19 -39 30 -13 38 9 3 24
9 32 14 22 12 30 3 30 -36z"/>
<path d="M1102 1208 c-17 -17 -15 -45 4 -52 25 -10 33 -7 44 15 19 35 -20 65
-48 37z"/>
<path d="M807 1196 c-11 -28 4 -47 32 -44 20 2 26 8 26 28 0 20 -6 26 -26 28
-17 2 -29 -3 -32 -12z"/>
<path d="M910 1095 c0 -8 10 -24 23 -35 22 -21 22 -22 3 -36 -31 -22 -65 -18
-76 11 -11 28 -25 32 -34 10 -8 -23 4 -44 34 -60 18 -9 33 -28 40 -52 14 -44
56 -93 80 -93 22 0 44 26 66 78 12 26 25 42 36 42 20 0 38 29 38 59 0 29 -19
26 -30 -5 -9 -23 -14 -26 -42 -20 -47 9 -65 50 -33 76 8 7 15 19 15 26 0 19
-29 18 -36 -1 -4 -8 -14 -15 -24 -15 -10 0 -20 7 -24 15 -7 19 -36 20 -36 0z
m89 -119 c24 -26 22 -65 -6 -88 -13 -10 -19 -8 -39 15 -53 62 -10 132 45 73z"/>
</g>
</svg>
